<?xml version="1.0" encoding="UTF-8" standalone="no"?>
<!DOCTYPE svg PUBLIC "-//W3C//DTD SVG 1.1//EN"
 "http://www.w3.org/Graphics/SVG/1.1/DTD/svg11.dtd">
<!-- Generated by graphviz version 2.50.0 (0)
 -->
<!-- Pages: 1 -->
<svg width="1341pt" height="210pt"
 viewBox="0.00 0.00 1341.00 210.00" xmlns="http://www.w3.org/2000/svg" xmlns:xlink="http://www.w3.org/1999/xlink">
<g id="graph0" class="graph" transform="scale(1 1) rotate(0) translate(4 206)">
<polygon fill="white" stroke="transparent" points="-4,4 -4,-206 1337,-206 1337,4 -4,4"/>
<!-- 1762797206752 -->
<g id="node1" class="node">
<title>1762797206752</title>
<polygon fill="none" stroke="black" points="590,-55.5 590,-91.5 757,-91.5 757,-55.5 590,-55.5"/>
<text text-anchor="middle" x="632.5" y="-69.8" font-family="Times New Roman,serif" font-size="14.00">data &#45;2.1671</text>
<polyline fill="none" stroke="black" points="675,-55.5 675,-91.5 "/>
<text text-anchor="middle" x="716" y="-69.8" font-family="Times New Roman,serif" font-size="14.00">grad 0.4898</text>
</g>
<!-- 1762797203728+ -->
<g id="node5" class="node">
<title>1762797203728+</title>
<ellipse fill="none" stroke="black" cx="820" cy="-100.5" rx="27" ry="18"/>
<text text-anchor="middle" x="820" y="-96.8" font-family="Times New Roman,serif" font-size="14.00">+</text>
</g>
<!-- 1762797206752&#45;&gt;1762797203728+ -->
<g id="edge11" class="edge">
<title>1762797206752&#45;&gt;1762797203728+</title>
<path fill="none" stroke="black" d="M757.3,-88.97C766.61,-90.71 775.68,-92.41 783.88,-93.94"/>
<polygon fill="black" stroke="black" points="783.27,-97.38 793.75,-95.78 784.56,-90.5 783.27,-97.38"/>
</g>
<!-- 1762797206752+ -->
<g id="node2" class="node">
<title>1762797206752+</title>
<ellipse fill="none" stroke="black" cx="527" cy="-73.5" rx="27" ry="18"/>
<text text-anchor="middle" x="527" y="-69.8" font-family="Times New Roman,serif" font-size="14.00">+</text>
</g>
<!-- 1762797206752+&#45;&gt;1762797206752 -->
<g id="edge1" class="edge">
<title>1762797206752+&#45;&gt;1762797206752</title>
<path fill="none" stroke="black" d="M554.17,-73.5C561.75,-73.5 570.5,-73.5 579.74,-73.5"/>
<polygon fill="black" stroke="black" points="579.92,-77 589.92,-73.5 579.92,-70 579.92,-77"/>
</g>
<!-- 1762813718272 -->
<g id="node3" class="node">
<title>1762813718272</title>
<polygon fill="none" stroke="black" points="293,-165.5 293,-201.5 464,-201.5 464,-165.5 293,-165.5"/>
<text text-anchor="middle" x="335.5" y="-179.8" font-family="Times New Roman,serif" font-size="14.00">data &#45;4.0000</text>
<polyline fill="none" stroke="black" points="378,-165.5 378,-201.5 "/>
<text text-anchor="middle" x="421" y="-179.8" font-family="Times New Roman,serif" font-size="14.00">grad &#45;0.3751</text>
</g>
<!-- 1762797206464* -->
<g id="node15" class="node">
<title>1762797206464*</title>
<ellipse fill="none" stroke="black" cx="527" cy="-128.5" rx="27" ry="18"/>
<text text-anchor="middle" x="527" y="-124.8" font-family="Times New Roman,serif" font-size="14.00">*</text>
</g>
<!-- 1762813718272&#45;&gt;1762797206464* -->
<g id="edge10" class="edge">
<title>1762813718272&#45;&gt;1762797206464*</title>
<path fill="none" stroke="black" d="M438.9,-165.47C447.38,-162.62 455.95,-159.59 464,-156.5 474.44,-152.49 485.65,-147.61 495.62,-143.06"/>
<polygon fill="black" stroke="black" points="497.14,-146.21 504.74,-138.83 494.19,-139.86 497.14,-146.21"/>
</g>
<!-- 1762797203728 -->
<g id="node4" class="node">
<title>1762797203728</title>
<polygon fill="none" stroke="black" points="883,-82.5 883,-118.5 1045,-118.5 1045,-82.5 883,-82.5"/>
<text text-anchor="middle" x="923" y="-96.8" font-family="Times New Roman,serif" font-size="14.00">data 0.8959</text>
<polyline fill="none" stroke="black" points="963,-82.5 963,-118.5 "/>
<text text-anchor="middle" x="1004" y="-96.8" font-family="Times New Roman,serif" font-size="14.00">grad 0.4898</text>
</g>
<!-- 1762797202240tanh -->
<g id="node7" class="node">
<title>1762797202240tanh</title>
<ellipse fill="none" stroke="black" cx="1108" cy="-100.5" rx="27" ry="18"/>
<text text-anchor="middle" x="1108" y="-96.8" font-family="Times New Roman,serif" font-size="14.00">tanh</text>
</g>
<!-- 1762797203728&#45;&gt;1762797202240tanh -->
<g id="edge6" class="edge">
<title>1762797203728&#45;&gt;1762797202240tanh</title>
<path fill="none" stroke="black" d="M1045.13,-100.5C1053.95,-100.5 1062.58,-100.5 1070.47,-100.5"/>
<polygon fill="black" stroke="black" points="1070.7,-104 1080.7,-100.5 1070.7,-97 1070.7,-104"/>
</g>
<!-- 1762797203728+&#45;&gt;1762797203728 -->
<g id="edge2" class="edge">
<title>1762797203728+&#45;&gt;1762797203728</title>
<path fill="none" stroke="black" d="M847.04,-100.5C854.63,-100.5 863.38,-100.5 872.6,-100.5"/>
<polygon fill="black" stroke="black" points="872.76,-104 882.76,-100.5 872.76,-97 872.76,-104"/>
</g>
<!-- 1762797202240 -->
<g id="node6" class="node">
<title>1762797202240</title>
<polygon fill="none" stroke="black" points="1171,-82.5 1171,-118.5 1333,-118.5 1333,-82.5 1171,-82.5"/>
<text text-anchor="middle" x="1211" y="-96.8" font-family="Times New Roman,serif" font-size="14.00">data 0.7143</text>
<polyline fill="none" stroke="black" points="1251,-82.5 1251,-118.5 "/>
<text text-anchor="middle" x="1292" y="-96.8" font-family="Times New Roman,serif" font-size="14.00">grad 1.0000</text>
</g>
<!-- 1762797202240tanh&#45;&gt;1762797202240 -->
<g id="edge3" class="edge">
<title>1762797202240tanh&#45;&gt;1762797202240</title>
<path fill="none" stroke="black" d="M1135.04,-100.5C1142.63,-100.5 1151.38,-100.5 1160.6,-100.5"/>
<polygon fill="black" stroke="black" points="1160.76,-104 1170.76,-100.5 1160.76,-97 1160.76,-104"/>
</g>
<!-- 1762813706560 -->
<g id="node8" class="node">
<title>1762813706560</title>
<polygon fill="none" stroke="black" points="293,-110.5 293,-146.5 464,-146.5 464,-110.5 293,-110.5"/>
<text text-anchor="middle" x="335.5" y="-124.8" font-family="Times New Roman,serif" font-size="14.00">data &#45;0.7657</text>
<polyline fill="none" stroke="black" points="378,-110.5 378,-146.5 "/>
<text text-anchor="middle" x="421" y="-124.8" font-family="Times New Roman,serif" font-size="14.00">grad &#45;1.9592</text>
</g>
<!-- 1762813706560&#45;&gt;1762797206464* -->
<g id="edge12" class="edge">
<title>1762813706560&#45;&gt;1762797206464*</title>
<path fill="none" stroke="black" d="M464.3,-128.5C473.17,-128.5 481.81,-128.5 489.68,-128.5"/>
<polygon fill="black" stroke="black" points="489.89,-132 499.89,-128.5 489.89,-125 489.89,-132"/>
</g>
<!-- 1762797204832 -->
<g id="node9" class="node">
<title>1762797204832</title>
<polygon fill="none" stroke="black" points="295,-55.5 295,-91.5 462,-91.5 462,-55.5 295,-55.5"/>
<text text-anchor="middle" x="337.5" y="-69.8" font-family="Times New Roman,serif" font-size="14.00">data &#45;1.5532</text>
<polyline fill="none" stroke="black" points="380,-55.5 380,-91.5 "/>
<text text-anchor="middle" x="421" y="-69.8" font-family="Times New Roman,serif" font-size="14.00">grad 0.4898</text>
</g>
<!-- 1762797204832&#45;&gt;1762797206752+ -->
<g id="edge13" class="edge">
<title>1762797204832&#45;&gt;1762797206752+</title>
<path fill="none" stroke="black" d="M462.17,-73.5C471.75,-73.5 481.12,-73.5 489.59,-73.5"/>
<polygon fill="black" stroke="black" points="489.8,-77 499.8,-73.5 489.8,-70 489.8,-77"/>
</g>
<!-- 1762797204832* -->
<g id="node10" class="node">
<title>1762797204832*</title>
<ellipse fill="none" stroke="black" cx="230" cy="-73.5" rx="27" ry="18"/>
<text text-anchor="middle" x="230" y="-69.8" font-family="Times New Roman,serif" font-size="14.00">*</text>
</g>
<!-- 1762797204832*&#45;&gt;1762797204832 -->
<g id="edge4" class="edge">
<title>1762797204832*&#45;&gt;1762797204832</title>
<path fill="none" stroke="black" d="M257.19,-73.5C265.28,-73.5 274.69,-73.5 284.62,-73.5"/>
<polygon fill="black" stroke="black" points="284.7,-77 294.7,-73.5 284.7,-70 284.7,-77"/>
</g>
<!-- 1762813714288 -->
<g id="node11" class="node">
<title>1762813714288</title>
<polygon fill="none" stroke="black" points="295,-0.5 295,-36.5 462,-36.5 462,-0.5 295,-0.5"/>
<text text-anchor="middle" x="337.5" y="-14.8" font-family="Times New Roman,serif" font-size="14.00">data &#45;0.6139</text>
<polyline fill="none" stroke="black" points="380,-0.5 380,-36.5 "/>
<text text-anchor="middle" x="421" y="-14.8" font-family="Times New Roman,serif" font-size="14.00">grad 0.4898</text>
</g>
<!-- 1762813714288&#45;&gt;1762797206752+ -->
<g id="edge14" class="edge">
<title>1762813714288&#45;&gt;1762797206752+</title>
<path fill="none" stroke="black" d="M438.9,-36.53C447.38,-39.38 455.95,-42.41 464,-45.5 474.44,-49.51 485.65,-54.39 495.62,-58.94"/>
<polygon fill="black" stroke="black" points="494.19,-62.14 504.74,-63.17 497.14,-55.79 494.19,-62.14"/>
</g>
<!-- 1762813710736 -->
<g id="node12" class="node">
<title>1762813710736</title>
<polygon fill="none" stroke="black" points="0.5,-83.5 0.5,-119.5 166.5,-119.5 166.5,-83.5 0.5,-83.5"/>
<text text-anchor="middle" x="40.5" y="-97.8" font-family="Times New Roman,serif" font-size="14.00">data 2.0000</text>
<polyline fill="none" stroke="black" points="80.5,-83.5 80.5,-119.5 "/>
<text text-anchor="middle" x="123.5" y="-97.8" font-family="Times New Roman,serif" font-size="14.00">grad &#45;0.3804</text>
</g>
<!-- 1762813710736&#45;&gt;1762797204832* -->
<g id="edge7" class="edge">
<title>1762813710736&#45;&gt;1762797204832*</title>
<path fill="none" stroke="black" d="M166.88,-85.54C176.33,-83.71 185.54,-81.92 193.85,-80.31"/>
<polygon fill="black" stroke="black" points="194.7,-83.71 203.85,-78.37 193.37,-76.84 194.7,-83.71"/>
</g>
<!-- 1762813717408 -->
<g id="node13" class="node">
<title>1762813717408</title>
<polygon fill="none" stroke="black" points="0,-28.5 0,-64.5 167,-64.5 167,-28.5 0,-28.5"/>
<text text-anchor="middle" x="42.5" y="-42.8" font-family="Times New Roman,serif" font-size="14.00">data &#45;0.7766</text>
<polyline fill="none" stroke="black" points="85,-28.5 85,-64.5 "/>
<text text-anchor="middle" x="126" y="-42.8" font-family="Times New Roman,serif" font-size="14.00">grad 0.9796</text>
</g>
<!-- 1762813717408&#45;&gt;1762797204832* -->
<g id="edge9" class="edge">
<title>1762813717408&#45;&gt;1762797204832*</title>
<path fill="none" stroke="black" d="M167.3,-61.97C176.61,-63.71 185.68,-65.41 193.88,-66.94"/>
<polygon fill="black" stroke="black" points="193.27,-70.38 203.75,-68.78 194.56,-63.5 193.27,-70.38"/>
</g>
<!-- 1762797206464 -->
<g id="node14" class="node">
<title>1762797206464</title>
<polygon fill="none" stroke="black" points="592.5,-110.5 592.5,-146.5 754.5,-146.5 754.5,-110.5 592.5,-110.5"/>
<text text-anchor="middle" x="632.5" y="-124.8" font-family="Times New Roman,serif" font-size="14.00">data 3.0629</text>
<polyline fill="none" stroke="black" points="672.5,-110.5 672.5,-146.5 "/>
<text text-anchor="middle" x="713.5" y="-124.8" font-family="Times New Roman,serif" font-size="14.00">grad 0.4898</text>
</g>
<!-- 1762797206464&#45;&gt;1762797203728+ -->
<g id="edge8" class="edge">
<title>1762797206464&#45;&gt;1762797203728+</title>
<path fill="none" stroke="black" d="M754.78,-112.94C764.96,-110.97 774.92,-109.04 783.85,-107.31"/>
<polygon fill="black" stroke="black" points="784.65,-110.72 793.8,-105.38 783.32,-103.85 784.65,-110.72"/>
</g>
<!-- 1762797206464*&#45;&gt;1762797206464 -->
<g id="edge5" class="edge">
<title>1762797206464*&#45;&gt;1762797206464</title>
<path fill="none" stroke="black" d="M554.17,-128.5C562.4,-128.5 572.01,-128.5 582.12,-128.5"/>
<polygon fill="black" stroke="black" points="582.37,-132 592.37,-128.5 582.37,-125 582.37,-132"/>
</g>
</g>
</svg>
